<svg width="173" height="21" viewBox="0 0 173 21" fill="none" xmlns="http://www.w3.org/2000/svg">
<path d="M12.936 20.832L11.064 18.024C10.536 18.12 10 18.168 9.456 18.168C7.872 18.168 6.416 17.8 5.088 17.064C3.76 16.312 2.704 15.28 1.92 13.968C1.152 12.64 0.768 11.144 0.768 9.48C0.768 7.816 1.152 6.328 1.92 5.016C2.704 3.688 3.76 2.656 5.088 1.92C6.416 1.184 7.872 0.816 9.456 0.816C11.056 0.816 12.512 1.184 13.824 1.92C15.152 2.656 16.2 3.688 16.968 5.016C17.736 6.328 18.12 7.816 18.12 9.48C18.12 10.872 17.84 12.16 17.28 13.344C16.72 14.512 15.952 15.488 14.976 16.272L18.552 20.832H12.936ZM5.568 9.48C5.568 10.808 5.912 11.864 6.6 12.648C7.288 13.416 8.24 13.8 9.456 13.8C10.656 13.8 11.6 13.408 12.288 12.624C12.992 11.84 13.344 10.792 13.344 9.48C13.344 8.136 12.992 7.08 12.288 6.312C11.6 5.528 10.656 5.136 9.456 5.136C8.24 5.136 7.288 5.528 6.6 6.312C5.912 7.08 5.568 8.136 5.568 9.48ZM30.8661 1.08V10.896C30.8661 11.808 31.0741 12.512 31.4901 13.008C31.9221 13.504 32.5701 13.752 33.4341 13.752C34.2981 13.752 34.9461 13.504 35.3781 13.008C35.8261 12.496 36.0501 11.792 36.0501 10.896V1.08H40.7541V10.896C40.7541 12.448 40.4261 13.776 39.7701 14.88C39.1141 15.968 38.2181 16.792 37.0821 17.352C35.9621 17.896 34.7141 18.168 33.3381 18.168C31.9621 18.168 30.7301 17.896 29.6421 17.352C28.5701 16.792 27.7221 15.968 27.0981 14.88C26.4901 13.792 26.1861 12.464 26.1861 10.896V1.08H30.8661ZM54.048 4.848V7.608H59.448V11.184H54.048V14.232H60.168V18H49.344V1.08H60.168V4.848H54.048ZM84.1644 18H79.4604L73.1964 8.544V18H68.4924V1.08H73.1964L79.4604 10.656V1.08H84.1644V18ZM105.588 1.08V4.824H101.076V18H96.372V4.824H91.908V1.08H105.588ZM120.024 1.08C121.8 1.08 123.352 1.44 124.68 2.16C126.024 2.864 127.056 3.856 127.776 5.136C128.496 6.416 128.856 7.88 128.856 9.528C128.856 11.16 128.488 12.616 127.752 13.896C127.032 15.176 126 16.184 124.656 16.92C123.328 17.64 121.784 18 120.024 18H113.328V1.08H120.024ZM119.664 13.848C121.04 13.848 122.12 13.472 122.904 12.72C123.688 11.968 124.08 10.904 124.08 9.528C124.08 8.136 123.688 7.064 122.904 6.312C122.12 5.544 121.04 5.16 119.664 5.16H118.032V13.848H119.664ZM141.681 4.848V7.608H147.081V11.184H141.681V14.232H147.801V18H136.977V1.08H147.801V4.848H141.681ZM172.589 1.08L166.757 18H160.733L154.877 1.08H159.917L163.757 13.296L167.573 1.08H172.589Z" fill="white"/>
</svg>
